<mxfile host="Electron" agent="Mozilla/5.0 (Windows NT 10.0; Win64; x64) AppleWebKit/537.36 (KHTML, like Gecko) draw.io/27.0.9 Chrome/134.0.6998.205 Electron/35.4.0 Safari/537.36" version="27.0.9">
  <diagram name="Page-1" id="zEL2f7h4Uj48g4VWimLs">
    <mxGraphModel dx="685" dy="407" grid="1" gridSize="10" guides="1" tooltips="1" connect="1" arrows="1" fold="1" page="1" pageScale="1" pageWidth="827" pageHeight="1169" math="0" shadow="0">
      <root>
        <mxCell id="0" />
        <mxCell id="1" parent="0" />
        <mxCell id="Ghag9Uj2o_KYf3zzMm-M-4" value="AWS Cloud" style="points=[[0,0],[0.25,0],[0.5,0],[0.75,0],[1,0],[1,0.25],[1,0.5],[1,0.75],[1,1],[0.75,1],[0.5,1],[0.25,1],[0,1],[0,0.75],[0,0.5],[0,0.25]];outlineConnect=0;gradientColor=none;html=1;whiteSpace=wrap;fontSize=12;fontStyle=0;container=1;pointerEvents=0;collapsible=0;recursiveResize=0;shape=mxgraph.aws4.group;grIcon=mxgraph.aws4.group_aws_cloud;strokeColor=#232F3E;fillColor=none;verticalAlign=top;align=left;spacingLeft=30;fontColor=#232F3E;dashed=0;" parent="1" vertex="1">
          <mxGeometry x="40" y="310" width="1150" height="1680" as="geometry" />
        </mxCell>
        <mxCell id="Ghag9Uj2o_KYf3zzMm-M-29" value="Region: us-east-1 North Virginia" style="points=[[0,0],[0.25,0],[0.5,0],[0.75,0],[1,0],[1,0.25],[1,0.5],[1,0.75],[1,1],[0.75,1],[0.5,1],[0.25,1],[0,1],[0,0.75],[0,0.5],[0,0.25]];outlineConnect=0;gradientColor=none;html=1;whiteSpace=wrap;fontSize=12;fontStyle=0;container=1;pointerEvents=0;collapsible=0;recursiveResize=0;shape=mxgraph.aws4.group;grIcon=mxgraph.aws4.group_region;strokeColor=#00A4A6;fillColor=none;verticalAlign=top;align=left;spacingLeft=30;fontColor=#147EBA;dashed=1;" parent="Ghag9Uj2o_KYf3zzMm-M-4" vertex="1">
          <mxGeometry x="40" y="40" width="1080" height="260" as="geometry" />
        </mxCell>
        <mxCell id="Ghag9Uj2o_KYf3zzMm-M-108" value="" style="rounded=1;whiteSpace=wrap;html=1;fillColor=none;dashed=1;" parent="Ghag9Uj2o_KYf3zzMm-M-29" vertex="1">
          <mxGeometry x="150" y="40" width="190" height="170" as="geometry" />
        </mxCell>
        <mxCell id="Ghag9Uj2o_KYf3zzMm-M-39" value="Region: eu-west-2 London" style="points=[[0,0],[0.25,0],[0.5,0],[0.75,0],[1,0],[1,0.25],[1,0.5],[1,0.75],[1,1],[0.75,1],[0.5,1],[0.25,1],[0,1],[0,0.75],[0,0.5],[0,0.25]];outlineConnect=0;gradientColor=none;html=1;whiteSpace=wrap;fontSize=12;fontStyle=0;container=1;pointerEvents=0;collapsible=0;recursiveResize=0;shape=mxgraph.aws4.group;grIcon=mxgraph.aws4.group_region;strokeColor=#00A4A6;fillColor=none;verticalAlign=top;align=left;spacingLeft=30;fontColor=#147EBA;dashed=1;" parent="Ghag9Uj2o_KYf3zzMm-M-4" vertex="1">
          <mxGeometry x="40" y="330" width="1080" height="1330" as="geometry" />
        </mxCell>
        <mxCell id="Ghag9Uj2o_KYf3zzMm-M-40" value="VPC" style="sketch=0;outlineConnect=0;gradientColor=none;html=1;whiteSpace=wrap;fontSize=12;fontStyle=0;shape=mxgraph.aws4.group;grIcon=mxgraph.aws4.group_vpc;strokeColor=#879196;fillColor=none;verticalAlign=top;align=left;spacingLeft=30;fontColor=#879196;dashed=0;" parent="Ghag9Uj2o_KYf3zzMm-M-39" vertex="1">
          <mxGeometry x="18" y="55" width="802" height="1055" as="geometry" />
        </mxCell>
        <mxCell id="Ghag9Uj2o_KYf3zzMm-M-86" value="Private subnet" style="points=[[0,0],[0.25,0],[0.5,0],[0.75,0],[1,0],[1,0.25],[1,0.5],[1,0.75],[1,1],[0.75,1],[0.5,1],[0.25,1],[0,1],[0,0.75],[0,0.5],[0,0.25]];outlineConnect=0;gradientColor=none;html=1;whiteSpace=wrap;fontSize=12;fontStyle=0;container=1;pointerEvents=0;collapsible=0;recursiveResize=0;shape=mxgraph.aws4.group;grIcon=mxgraph.aws4.group_security_group;grStroke=0;strokeColor=#00A4A6;fillColor=#E6F6F7;verticalAlign=top;align=left;spacingLeft=30;fontColor=#147EBA;dashed=0;" parent="Ghag9Uj2o_KYf3zzMm-M-39" vertex="1">
          <mxGeometry x="128" y="425" width="242" height="555" as="geometry" />
        </mxCell>
        <mxCell id="Ghag9Uj2o_KYf3zzMm-M-100" value="Availability Zone" style="fillColor=none;strokeColor=#147EBA;dashed=1;verticalAlign=top;fontStyle=0;fontColor=#147EBA;whiteSpace=wrap;html=1;" parent="Ghag9Uj2o_KYf3zzMm-M-39" vertex="1">
          <mxGeometry x="538" y="30" width="260" height="960" as="geometry" />
        </mxCell>
        <mxCell id="Ghag9Uj2o_KYf3zzMm-M-122" value="" style="group" parent="Ghag9Uj2o_KYf3zzMm-M-39" vertex="1" connectable="0">
          <mxGeometry x="860" y="100" width="190" height="170" as="geometry" />
        </mxCell>
        <mxCell id="Ghag9Uj2o_KYf3zzMm-M-117" value="" style="rounded=1;whiteSpace=wrap;html=1;fillColor=none;dashed=1;" parent="Ghag9Uj2o_KYf3zzMm-M-122" vertex="1">
          <mxGeometry width="190" height="170" as="geometry" />
        </mxCell>
        <mxCell id="Ghag9Uj2o_KYf3zzMm-M-118" value="Certificate Manager" style="sketch=0;points=[[0,0,0],[0.25,0,0],[0.5,0,0],[0.75,0,0],[1,0,0],[0,1,0],[0.25,1,0],[0.5,1,0],[0.75,1,0],[1,1,0],[0,0.25,0],[0,0.5,0],[0,0.75,0],[1,0.25,0],[1,0.5,0],[1,0.75,0]];outlineConnect=0;fontColor=#232F3E;fillColor=#DD344C;strokeColor=#ffffff;dashed=0;verticalLabelPosition=bottom;verticalAlign=top;align=center;html=1;fontSize=12;fontStyle=0;aspect=fixed;shape=mxgraph.aws4.resourceIcon;resIcon=mxgraph.aws4.certificate_manager_3;" parent="Ghag9Uj2o_KYf3zzMm-M-122" vertex="1">
          <mxGeometry x="40" y="10" width="40" height="40" as="geometry" />
        </mxCell>
        <mxCell id="Ghag9Uj2o_KYf3zzMm-M-119" value="api.okyapp.info&lt;div&gt;cms.okyapp.info&lt;/div&gt;" style="sketch=0;aspect=fixed;pointerEvents=1;shadow=0;dashed=0;html=1;strokeColor=none;labelPosition=center;verticalLabelPosition=bottom;verticalAlign=top;align=center;fillColor=#00188D;shape=mxgraph.azure.certificate" parent="Ghag9Uj2o_KYf3zzMm-M-122" vertex="1">
          <mxGeometry x="110" y="80" width="50" height="40" as="geometry" />
        </mxCell>
        <mxCell id="Ghag9Uj2o_KYf3zzMm-M-46" value="Availability Zone" style="fillColor=none;strokeColor=#147EBA;dashed=1;verticalAlign=top;fontStyle=0;fontColor=#147EBA;whiteSpace=wrap;html=1;" parent="Ghag9Uj2o_KYf3zzMm-M-39" vertex="1">
          <mxGeometry x="118" y="30" width="260" height="960" as="geometry" />
        </mxCell>
        <mxCell id="Ghag9Uj2o_KYf3zzMm-M-70" value="Public subnet" style="points=[[0,0],[0.25,0],[0.5,0],[0.75,0],[1,0],[1,0.25],[1,0.5],[1,0.75],[1,1],[0.75,1],[0.5,1],[0.25,1],[0,1],[0,0.75],[0,0.5],[0,0.25]];outlineConnect=0;gradientColor=none;html=1;whiteSpace=wrap;fontSize=12;fontStyle=0;container=1;pointerEvents=0;collapsible=0;recursiveResize=0;shape=mxgraph.aws4.group;grIcon=mxgraph.aws4.group_security_group;grStroke=0;strokeColor=#7AA116;fillColor=#F2F6E8;verticalAlign=top;align=left;spacingLeft=30;fontColor=#248814;dashed=0;" parent="Ghag9Uj2o_KYf3zzMm-M-39" vertex="1">
          <mxGeometry x="128" y="185" width="242" height="220" as="geometry" />
        </mxCell>
        <mxCell id="Ghag9Uj2o_KYf3zzMm-M-90" value="CMS Service" style="sketch=0;outlineConnect=0;fontColor=#232F3E;gradientColor=none;fillColor=#ED7100;strokeColor=none;dashed=0;verticalLabelPosition=bottom;verticalAlign=top;align=center;html=1;fontSize=12;fontStyle=0;aspect=fixed;pointerEvents=1;shape=mxgraph.aws4.ecs_service;" parent="Ghag9Uj2o_KYf3zzMm-M-39" vertex="1">
          <mxGeometry x="66.63" y="662.5" width="32.5" height="40" as="geometry" />
        </mxCell>
        <mxCell id="Ghag9Uj2o_KYf3zzMm-M-101" value="Public subnet" style="points=[[0,0],[0.25,0],[0.5,0],[0.75,0],[1,0],[1,0.25],[1,0.5],[1,0.75],[1,1],[0.75,1],[0.5,1],[0.25,1],[0,1],[0,0.75],[0,0.5],[0,0.25]];outlineConnect=0;gradientColor=none;html=1;whiteSpace=wrap;fontSize=12;fontStyle=0;container=1;pointerEvents=0;collapsible=0;recursiveResize=0;shape=mxgraph.aws4.group;grIcon=mxgraph.aws4.group_security_group;grStroke=0;strokeColor=#7AA116;fillColor=#F2F6E8;verticalAlign=top;align=left;spacingLeft=30;fontColor=#248814;dashed=0;" parent="Ghag9Uj2o_KYf3zzMm-M-39" vertex="1">
          <mxGeometry x="548" y="185" width="242" height="220" as="geometry" />
        </mxCell>
        <mxCell id="Ghag9Uj2o_KYf3zzMm-M-104" value="Security Group&lt;div&gt;Allow incoming HTTPS from CloudFront prefix list&lt;/div&gt;" style="fontStyle=0;verticalAlign=top;align=center;spacingTop=-2;fillColor=none;rounded=0;whiteSpace=wrap;html=1;strokeColor=#FF0000;strokeWidth=2;dashed=1;container=1;collapsible=0;expand=0;recursiveResize=0;" parent="Ghag9Uj2o_KYf3zzMm-M-39" vertex="1">
          <mxGeometry x="152" y="70" width="618" height="325" as="geometry" />
        </mxCell>
        <mxCell id="Ghag9Uj2o_KYf3zzMm-M-121" value="Application Load Balancer" style="outlineConnect=0;dashed=0;verticalLabelPosition=bottom;verticalAlign=top;align=center;html=1;shape=mxgraph.aws3.application_load_balancer;fillColor=#F58534;gradientColor=none;" parent="Ghag9Uj2o_KYf3zzMm-M-104" vertex="1">
          <mxGeometry x="289" y="40" width="40" height="40" as="geometry" />
        </mxCell>
        <mxCell id="gXcSTlvEl8zo6IsZ8F5V-10" value="" style="endArrow=classic;html=1;rounded=0;exitX=0.145;exitY=0.855;exitDx=0;exitDy=0;exitPerimeter=0;entryX=0.5;entryY=0;entryDx=0;entryDy=0;entryPerimeter=0;" parent="Ghag9Uj2o_KYf3zzMm-M-104" source="Ghag9Uj2o_KYf3zzMm-M-121" target="gXcSTlvEl8zo6IsZ8F5V-78" edge="1">
          <mxGeometry width="50" height="50" relative="1" as="geometry">
            <mxPoint x="178" y="240" as="sourcePoint" />
            <mxPoint x="86" y="45" as="targetPoint" />
            <Array as="points">
              <mxPoint x="97" y="74" />
            </Array>
          </mxGeometry>
        </mxCell>
        <mxCell id="gXcSTlvEl8zo6IsZ8F5V-78" value="" style="outlineConnect=0;dashed=0;verticalLabelPosition=bottom;verticalAlign=top;align=center;html=1;shape=mxgraph.aws3.application_load_balancer;fillColor=#F58534;gradientColor=none;" parent="Ghag9Uj2o_KYf3zzMm-M-104" vertex="1">
          <mxGeometry x="77" y="190" width="40" height="40" as="geometry" />
        </mxCell>
        <mxCell id="Ghag9Uj2o_KYf3zzMm-M-120" value="" style="outlineConnect=0;dashed=0;verticalLabelPosition=bottom;verticalAlign=top;align=center;html=1;shape=mxgraph.aws3.application_load_balancer;fillColor=#F58534;gradientColor=none;" parent="Ghag9Uj2o_KYf3zzMm-M-104" vertex="1">
          <mxGeometry x="498" y="190" width="40" height="40" as="geometry" />
        </mxCell>
        <mxCell id="gXcSTlvEl8zo6IsZ8F5V-20" value="" style="endArrow=classic;html=1;rounded=0;exitX=0.855;exitY=0.855;exitDx=0;exitDy=0;exitPerimeter=0;entryX=0.5;entryY=0;entryDx=0;entryDy=0;entryPerimeter=0;" parent="Ghag9Uj2o_KYf3zzMm-M-104" source="Ghag9Uj2o_KYf3zzMm-M-121" target="Ghag9Uj2o_KYf3zzMm-M-120" edge="1">
          <mxGeometry width="50" height="50" relative="1" as="geometry">
            <mxPoint x="294" y="70" as="sourcePoint" />
            <mxPoint x="88" y="191" as="targetPoint" />
            <Array as="points">
              <mxPoint x="518" y="74" />
            </Array>
          </mxGeometry>
        </mxCell>
        <mxCell id="Ghag9Uj2o_KYf3zzMm-M-124" value="" style="endArrow=classic;html=1;rounded=0;exitX=0;exitY=0.5;exitDx=0;exitDy=0;exitPerimeter=0;entryX=1;entryY=0.5;entryDx=0;entryDy=0;entryPerimeter=0;" parent="Ghag9Uj2o_KYf3zzMm-M-39" source="Ghag9Uj2o_KYf3zzMm-M-118" target="Ghag9Uj2o_KYf3zzMm-M-121" edge="1">
          <mxGeometry width="50" height="50" relative="1" as="geometry">
            <mxPoint x="658" y="275" as="sourcePoint" />
            <mxPoint x="708" y="225" as="targetPoint" />
          </mxGeometry>
        </mxCell>
        <mxCell id="Ghag9Uj2o_KYf3zzMm-M-88" value="ECS" style="sketch=0;points=[[0,0,0],[0.25,0,0],[0.5,0,0],[0.75,0,0],[1,0,0],[0,1,0],[0.25,1,0],[0.5,1,0],[0.75,1,0],[1,1,0],[0,0.25,0],[0,0.5,0],[0,0.75,0],[1,0.25,0],[1,0.5,0],[1,0.75,0]];outlineConnect=0;fontColor=#232F3E;fillColor=#ED7100;strokeColor=#ffffff;dashed=0;verticalLabelPosition=bottom;verticalAlign=top;align=center;html=1;fontSize=12;fontStyle=0;aspect=fixed;shape=mxgraph.aws4.resourceIcon;resIcon=mxgraph.aws4.ecs;" parent="Ghag9Uj2o_KYf3zzMm-M-39" vertex="1">
          <mxGeometry x="62.879999999999995" y="475" width="40" height="40" as="geometry" />
        </mxCell>
        <mxCell id="gXcSTlvEl8zo6IsZ8F5V-31" value="Private subnet" style="points=[[0,0],[0.25,0],[0.5,0],[0.75,0],[1,0],[1,0.25],[1,0.5],[1,0.75],[1,1],[0.75,1],[0.5,1],[0.25,1],[0,1],[0,0.75],[0,0.5],[0,0.25]];outlineConnect=0;gradientColor=none;html=1;whiteSpace=wrap;fontSize=12;fontStyle=0;container=1;pointerEvents=0;collapsible=0;recursiveResize=0;shape=mxgraph.aws4.group;grIcon=mxgraph.aws4.group_security_group;grStroke=0;strokeColor=#00A4A6;fillColor=#E6F6F7;verticalAlign=top;align=left;spacingLeft=30;fontColor=#147EBA;dashed=0;" parent="Ghag9Uj2o_KYf3zzMm-M-39" vertex="1">
          <mxGeometry x="548" y="425" width="242" height="555" as="geometry" />
        </mxCell>
        <mxCell id="gXcSTlvEl8zo6IsZ8F5V-2" value="Target Group" style="rounded=1;whiteSpace=wrap;html=1;fillColor=none;dashed=1;strokeColor=#97D077;verticalAlign=top;" parent="Ghag9Uj2o_KYf3zzMm-M-39" vertex="1">
          <mxGeometry x="140" y="640" width="630" height="85" as="geometry" />
        </mxCell>
        <mxCell id="gXcSTlvEl8zo6IsZ8F5V-1" value="Target Group" style="rounded=1;whiteSpace=wrap;html=1;fillColor=none;dashed=1;strokeColor=#97D077;verticalAlign=top;" parent="Ghag9Uj2o_KYf3zzMm-M-39" vertex="1">
          <mxGeometry x="140" y="542.5" width="630" height="85" as="geometry" />
        </mxCell>
        <mxCell id="gXcSTlvEl8zo6IsZ8F5V-3" value="" style="rounded=1;whiteSpace=wrap;html=1;fillColor=none;dashed=1;arcSize=3;" parent="Ghag9Uj2o_KYf3zzMm-M-39" vertex="1">
          <mxGeometry x="40" y="460" width="740" height="280" as="geometry" />
        </mxCell>
        <mxCell id="OGXLZMMOmWirMbefxMoP-4" value="" style="rounded=1;arcSize=10;dashed=1;strokeColor=#ff0000;fillColor=none;gradientColor=none;dashPattern=8 4;strokeWidth=2;" parent="Ghag9Uj2o_KYf3zzMm-M-39" vertex="1">
          <mxGeometry x="180" y="545" width="70" height="75" as="geometry" />
        </mxCell>
        <mxCell id="OGXLZMMOmWirMbefxMoP-5" value="" style="rounded=1;arcSize=10;dashed=1;strokeColor=#ff0000;fillColor=none;gradientColor=none;dashPattern=8 4;strokeWidth=2;" parent="Ghag9Uj2o_KYf3zzMm-M-39" vertex="1">
          <mxGeometry x="700" y="650" width="70" height="75" as="geometry" />
        </mxCell>
        <mxCell id="gXcSTlvEl8zo6IsZ8F5V-32" value="CMS Task" style="sketch=0;outlineConnect=0;fontColor=#232F3E;gradientColor=none;fillColor=#ED7100;strokeColor=none;dashed=0;verticalLabelPosition=bottom;verticalAlign=top;align=center;html=1;fontSize=12;fontStyle=0;aspect=fixed;pointerEvents=1;shape=mxgraph.aws4.ecs_task;" parent="Ghag9Uj2o_KYf3zzMm-M-39" vertex="1">
          <mxGeometry x="723.0000000000001" y="655" width="30.83" height="40" as="geometry" />
        </mxCell>
        <mxCell id="gXcSTlvEl8zo6IsZ8F5V-34" value="Fargate" style="sketch=0;points=[[0,0,0],[0.25,0,0],[0.5,0,0],[0.75,0,0],[1,0,0],[0,1,0],[0.25,1,0],[0.5,1,0],[0.75,1,0],[1,1,0],[0,0.25,0],[0,0.5,0],[0,0.75,0],[1,0.25,0],[1,0.5,0],[1,0.75,0]];outlineConnect=0;fontColor=#232F3E;fillColor=#ED7100;strokeColor=#ffffff;dashed=0;verticalLabelPosition=bottom;verticalAlign=top;align=center;html=1;fontSize=12;fontStyle=0;aspect=fixed;shape=mxgraph.aws4.resourceIcon;resIcon=mxgraph.aws4.fargate;" parent="Ghag9Uj2o_KYf3zzMm-M-39" vertex="1">
          <mxGeometry x="649" y="475" width="40" height="40" as="geometry" />
        </mxCell>
        <mxCell id="gXcSTlvEl8zo6IsZ8F5V-6" value="API Task" style="sketch=0;outlineConnect=0;fontColor=#232F3E;gradientColor=none;fillColor=#ED7100;strokeColor=none;dashed=0;verticalLabelPosition=bottom;verticalAlign=top;align=center;html=1;fontSize=12;fontStyle=0;aspect=fixed;pointerEvents=1;shape=mxgraph.aws4.ecs_task;" parent="Ghag9Uj2o_KYf3zzMm-M-39" vertex="1">
          <mxGeometry x="198.17000000000004" y="555" width="30.83" height="40" as="geometry" />
        </mxCell>
        <mxCell id="gXcSTlvEl8zo6IsZ8F5V-7" value="Fargate" style="sketch=0;points=[[0,0,0],[0.25,0,0],[0.5,0,0],[0.75,0,0],[1,0,0],[0,1,0],[0.25,1,0],[0.5,1,0],[0.75,1,0],[1,1,0],[0,0.25,0],[0,0.5,0],[0,0.75,0],[1,0.25,0],[1,0.5,0],[1,0.75,0]];outlineConnect=0;fontColor=#232F3E;fillColor=#ED7100;strokeColor=#ffffff;dashed=0;verticalLabelPosition=bottom;verticalAlign=top;align=center;html=1;fontSize=12;fontStyle=0;aspect=fixed;shape=mxgraph.aws4.resourceIcon;resIcon=mxgraph.aws4.fargate;" parent="Ghag9Uj2o_KYf3zzMm-M-39" vertex="1">
          <mxGeometry x="229" y="475" width="40" height="40" as="geometry" />
        </mxCell>
        <mxCell id="gXcSTlvEl8zo6IsZ8F5V-8" value="" style="endArrow=classic;html=1;rounded=0;exitX=0.5;exitY=1;exitDx=0;exitDy=0;exitPerimeter=0;" parent="Ghag9Uj2o_KYf3zzMm-M-39" source="gXcSTlvEl8zo6IsZ8F5V-78" target="gXcSTlvEl8zo6IsZ8F5V-6" edge="1">
          <mxGeometry width="50" height="50" relative="1" as="geometry">
            <mxPoint x="238" y="175" as="sourcePoint" />
            <mxPoint x="430" y="550" as="targetPoint" />
          </mxGeometry>
        </mxCell>
        <mxCell id="gXcSTlvEl8zo6IsZ8F5V-24" value="" style="endArrow=classic;startArrow=none;html=1;rounded=0;exitX=0.486;exitY=0.004;exitDx=0;exitDy=0;exitPerimeter=0;entryX=0.051;entryY=1.012;entryDx=0;entryDy=0;entryPerimeter=0;startFill=0;" parent="Ghag9Uj2o_KYf3zzMm-M-39" source="0WTZu4ovhttGv2kPZOOL-16" target="gXcSTlvEl8zo6IsZ8F5V-6" edge="1">
          <mxGeometry width="50" height="50" relative="1" as="geometry">
            <mxPoint x="170.48000000000002" y="879.8" as="sourcePoint" />
            <mxPoint x="410" y="720" as="targetPoint" />
          </mxGeometry>
        </mxCell>
        <mxCell id="gXcSTlvEl8zo6IsZ8F5V-26" value="" style="endArrow=classic;html=1;rounded=0;exitX=1.02;exitY=0.509;exitDx=0;exitDy=0;exitPerimeter=0;entryX=0.492;entryY=0.012;entryDx=0;entryDy=0;entryPerimeter=0;" parent="Ghag9Uj2o_KYf3zzMm-M-39" source="gXcSTlvEl8zo6IsZ8F5V-6" target="0WTZu4ovhttGv2kPZOOL-15" edge="1">
          <mxGeometry width="50" height="50" relative="1" as="geometry">
            <mxPoint x="260" y="710" as="sourcePoint" />
            <mxPoint x="332.79999999999995" y="880.72" as="targetPoint" />
          </mxGeometry>
        </mxCell>
        <mxCell id="gXcSTlvEl8zo6IsZ8F5V-45" value="" style="endArrow=classic;html=1;rounded=0;exitX=0.5;exitY=1;exitDx=0;exitDy=0;exitPerimeter=0;entryX=0.495;entryY=-0.048;entryDx=0;entryDy=0;entryPerimeter=0;" parent="Ghag9Uj2o_KYf3zzMm-M-39" source="Ghag9Uj2o_KYf3zzMm-M-120" target="gXcSTlvEl8zo6IsZ8F5V-32" edge="1">
          <mxGeometry width="50" height="50" relative="1" as="geometry">
            <mxPoint x="663" y="310" as="sourcePoint" />
            <mxPoint x="739" y="655" as="targetPoint" />
          </mxGeometry>
        </mxCell>
        <mxCell id="OGXLZMMOmWirMbefxMoP-3" value="Security Group&#xa;Allow incoming from&#xa;ECS API &amp; CMS Task SGs" style="rounded=1;arcSize=10;dashed=1;strokeColor=#ff0000;fillColor=none;gradientColor=none;dashPattern=8 4;strokeWidth=2;verticalAlign=top;" parent="Ghag9Uj2o_KYf3zzMm-M-39" vertex="1">
          <mxGeometry x="140" y="860" width="640" height="109.5" as="geometry" />
        </mxCell>
        <mxCell id="Ghag9Uj2o_KYf3zzMm-M-89" value="API Service&lt;span style=&quot;color: rgba(0, 0, 0, 0); font-family: monospace; font-size: 0px; text-align: start;&quot;&gt;%3CmxGraphModel%3E%3Croot%3E%3CmxCell%20id%3D%220%22%2F%3E%3CmxCell%20id%3D%221%22%20parent%3D%220%22%2F%3E%3CmxCell%20id%3D%222%22%20value%3D%22VPC%22%20style%3D%22sketch%3D0%3BoutlineConnect%3D0%3BgradientColor%3Dnone%3Bhtml%3D1%3BwhiteSpace%3Dwrap%3BfontSize%3D12%3BfontStyle%3D0%3Bshape%3Dmxgraph.aws4.group%3BgrIcon%3Dmxgraph.aws4.group_vpc%3BstrokeColor%3D%23879196%3BfillColor%3Dnone%3BverticalAlign%3Dtop%3Balign%3Dleft%3BspacingLeft%3D30%3BfontColor%3D%23879196%3Bdashed%3D0%3B%22%20vertex%3D%221%22%20parent%3D%221%22%3E%3CmxGeometry%20x%3D%22110%22%20y%3D%22450%22%20width%3D%22600%22%20height%3D%22250%22%20as%3D%22geometry%22%2F%3E%3C%2FmxCell%3E%3CmxCell%20id%3D%223%22%20value%3D%22%22%20style%3D%22group%22%20vertex%3D%221%22%20connectable%3D%220%22%20parent%3D%221%22%3E%3CmxGeometry%20x%3D%22120%22%20y%3D%22160%22%20width%3D%22300%22%20height%3D%22160%22%20as%3D%22geometry%22%2F%3E%3C%2FmxCell%3E%3CmxCell%20id%3D%224%22%20value%3D%22%22%20style%3D%22rounded%3D0%3BwhiteSpace%3Dwrap%3Bhtml%3D1%3B%22%20vertex%3D%221%22%20parent%3D%223%22%3E%3CmxGeometry%20width%3D%22300%22%20height%3D%22160%22%20as%3D%22geometry%22%2F%3E%3C%2FmxCell%3E%3CmxCell%20id%3D%225%22%20value%3D%22ECR%22%20style%3D%22outlineConnect%3D0%3Bdashed%3D0%3BverticalLabelPosition%3Dbottom%3BverticalAlign%3Dtop%3Balign%3Dcenter%3Bhtml%3D1%3Bshape%3Dmxgraph.aws3.ecr%3BfillColor%3D%23F58534%3BgradientColor%3Dnone%3B%22%20vertex%3D%221%22%20parent%3D%223%22%3E%3CmxGeometry%20x%3D%2210%22%20y%3D%2210%22%20width%3D%2240%22%20height%3D%2240%22%20as%3D%22geometry%22%2F%3E%3C%2FmxCell%3E%3CmxCell%20id%3D%226%22%20value%3D%22API%22%20style%3D%22outlineConnect%3D0%3Bdashed%3D0%3BverticalLabelPosition%3Dbottom%3BverticalAlign%3Dtop%3Balign%3Dcenter%3Bhtml%3D1%3Bshape%3Dmxgraph.aws3.ecr_registry%3BfillColor%3D%23F58534%3BgradientColor%3Dnone%3B%22%20vertex%3D%221%22%20parent%3D%223%22%3E%3CmxGeometry%20x%3D%2210%22%20y%3D%2290%22%20width%3D%2240%22%20height%3D%2240%22%20as%3D%22geometry%22%2F%3E%3C%2FmxCell%3E%3CmxCell%20id%3D%227%22%20value%3D%22CMS%22%20style%3D%22outlineConnect%3D0%3Bdashed%3D0%3BverticalLabelPosition%3Dbottom%3BverticalAlign%3Dtop%3Balign%3Dcenter%3Bhtml%3D1%3Bshape%3Dmxgraph.aws3.ecr_registry%3BfillColor%3D%23F58534%3BgradientColor%3Dnone%3B%22%20vertex%3D%221%22%20parent%3D%223%22%3E%3CmxGeometry%20x%3D%2270%22%20y%3D%2290%22%20width%3D%2240%22%20height%3D%2240%22%20as%3D%22geometry%22%2F%3E%3C%2FmxCell%3E%3CmxCell%20id%3D%228%22%20value%3D%22Availability%20Zone%22%20style%3D%22fillColor%3Dnone%3BstrokeColor%3D%23147EBA%3Bdashed%3D1%3BverticalAlign%3Dtop%3BfontStyle%3D0%3BfontColor%3D%23147EBA%3BwhiteSpace%3Dwrap%3Bhtml%3D1%3B%22%20vertex%3D%221%22%20parent%3D%221%22%3E%3CmxGeometry%20x%3D%22260%22%20y%3D%22370%22%20width%3D%22170%22%20height%3D%22350%22%20as%3D%22geometry%22%2F%3E%3C%2FmxCell%3E%3C%2Froot%3E%3C%2FmxGraphModel%3E&lt;/span&gt;" style="sketch=0;outlineConnect=0;fontColor=#232F3E;gradientColor=none;fillColor=#ED7100;strokeColor=none;dashed=0;verticalLabelPosition=bottom;verticalAlign=top;align=center;html=1;fontSize=12;fontStyle=0;aspect=fixed;pointerEvents=1;shape=mxgraph.aws4.ecs_service;" parent="Ghag9Uj2o_KYf3zzMm-M-39" vertex="1">
          <mxGeometry x="66.63" y="555" width="32.5" height="40" as="geometry" />
        </mxCell>
        <mxCell id="Ghag9Uj2o_KYf3zzMm-M-115" value="IAM Role" style="sketch=0;outlineConnect=0;fontColor=#232F3E;gradientColor=none;fillColor=#DD344C;strokeColor=none;dashed=0;verticalLabelPosition=bottom;verticalAlign=top;align=center;html=1;fontSize=12;fontStyle=0;aspect=fixed;pointerEvents=1;shape=mxgraph.aws4.role;" parent="Ghag9Uj2o_KYf3zzMm-M-39" vertex="1">
          <mxGeometry x="258" y="555" width="35.46" height="20" as="geometry" />
        </mxCell>
        <mxCell id="Ghag9Uj2o_KYf3zzMm-M-116" value="" style="sketch=0;outlineConnect=0;fontColor=#232F3E;gradientColor=none;fillColor=#DD344C;strokeColor=none;dashed=0;verticalLabelPosition=bottom;verticalAlign=top;align=center;html=1;fontSize=12;fontStyle=0;aspect=fixed;pointerEvents=1;shape=mxgraph.aws4.permissions;" parent="Ghag9Uj2o_KYf3zzMm-M-39" vertex="1">
          <mxGeometry x="303.46" y="555" width="30" height="37.75" as="geometry" />
        </mxCell>
        <mxCell id="gXcSTlvEl8zo6IsZ8F5V-61" value="IAM Role" style="sketch=0;outlineConnect=0;fontColor=#232F3E;gradientColor=none;fillColor=#DD344C;strokeColor=none;dashed=0;verticalLabelPosition=bottom;verticalAlign=top;align=center;html=1;fontSize=12;fontStyle=0;aspect=fixed;pointerEvents=1;shape=mxgraph.aws4.role;" parent="Ghag9Uj2o_KYf3zzMm-M-39" vertex="1">
          <mxGeometry x="606.5899999999999" y="655" width="35.46" height="20" as="geometry" />
        </mxCell>
        <mxCell id="gXcSTlvEl8zo6IsZ8F5V-62" value="" style="sketch=0;outlineConnect=0;fontColor=#232F3E;gradientColor=none;fillColor=#DD344C;strokeColor=none;dashed=0;verticalLabelPosition=bottom;verticalAlign=top;align=center;html=1;fontSize=12;fontStyle=0;aspect=fixed;pointerEvents=1;shape=mxgraph.aws4.permissions;" parent="Ghag9Uj2o_KYf3zzMm-M-39" vertex="1">
          <mxGeometry x="657.2099999999999" y="655" width="31.79" height="40" as="geometry" />
        </mxCell>
        <mxCell id="gXcSTlvEl8zo6IsZ8F5V-71" value="" style="endArrow=classic;startArrow=classic;html=1;rounded=0;exitX=-0.04;exitY=0.834;exitDx=0;exitDy=0;exitPerimeter=0;entryX=1;entryY=0.25;entryDx=0;entryDy=0;entryPerimeter=0;" parent="Ghag9Uj2o_KYf3zzMm-M-39" source="gXcSTlvEl8zo6IsZ8F5V-32" target="0WTZu4ovhttGv2kPZOOL-4" edge="1">
          <mxGeometry width="50" height="50" relative="1" as="geometry">
            <mxPoint x="470" y="759.9999999999998" as="sourcePoint" />
            <mxPoint x="668.6399708494648" y="771" as="targetPoint" />
          </mxGeometry>
        </mxCell>
        <mxCell id="gXcSTlvEl8zo6IsZ8F5V-73" value="" style="endArrow=classic;html=1;rounded=0;exitX=0.719;exitY=0.044;exitDx=0;exitDy=0;exitPerimeter=0;entryX=0.772;entryY=1.019;entryDx=0;entryDy=0;entryPerimeter=0;" parent="Ghag9Uj2o_KYf3zzMm-M-39" source="0WTZu4ovhttGv2kPZOOL-22" target="gXcSTlvEl8zo6IsZ8F5V-32" edge="1">
          <mxGeometry width="50" height="50" relative="1" as="geometry">
            <mxPoint x="679.6800000000001" y="885.76" as="sourcePoint" />
            <mxPoint x="610" y="740" as="targetPoint" />
          </mxGeometry>
        </mxCell>
        <mxCell id="gXcSTlvEl8zo6IsZ8F5V-74" value="" style="endArrow=classic;html=1;rounded=0;entryX=0.571;entryY=0.009;entryDx=0;entryDy=0;entryPerimeter=0;exitX=0.899;exitY=0.993;exitDx=0;exitDy=0;exitPerimeter=0;" parent="Ghag9Uj2o_KYf3zzMm-M-39" source="gXcSTlvEl8zo6IsZ8F5V-32" target="0WTZu4ovhttGv2kPZOOL-20" edge="1">
          <mxGeometry width="50" height="50" relative="1" as="geometry">
            <mxPoint x="758.5336363636366" y="697.02" as="sourcePoint" />
            <mxPoint x="753.8299999999999" y="882.98" as="targetPoint" />
          </mxGeometry>
        </mxCell>
        <mxCell id="OGXLZMMOmWirMbefxMoP-7" value="Security Group&lt;div&gt;API ECS Task&lt;/div&gt;&lt;div&gt;Allow incoming from ALB&lt;/div&gt;" style="text;html=1;align=center;verticalAlign=middle;whiteSpace=wrap;rounded=0;" parent="Ghag9Uj2o_KYf3zzMm-M-39" vertex="1">
          <mxGeometry x="840" y="512.5" width="150" height="30" as="geometry" />
        </mxCell>
        <mxCell id="OGXLZMMOmWirMbefxMoP-8" value="Security Group&lt;div&gt;CMS ECS Task&lt;/div&gt;&lt;div&gt;Allow incoming from ALB&lt;/div&gt;" style="text;html=1;align=center;verticalAlign=middle;whiteSpace=wrap;rounded=0;" parent="Ghag9Uj2o_KYf3zzMm-M-39" vertex="1">
          <mxGeometry x="840" y="655" width="150" height="30" as="geometry" />
        </mxCell>
        <mxCell id="OGXLZMMOmWirMbefxMoP-9" value="" style="endArrow=none;html=1;rounded=0;entryX=0;entryY=1;entryDx=0;entryDy=0;exitX=1.011;exitY=0.119;exitDx=0;exitDy=0;exitPerimeter=0;" parent="Ghag9Uj2o_KYf3zzMm-M-39" source="OGXLZMMOmWirMbefxMoP-4" target="OGXLZMMOmWirMbefxMoP-7" edge="1">
          <mxGeometry width="50" height="50" relative="1" as="geometry">
            <mxPoint x="550" y="630" as="sourcePoint" />
            <mxPoint x="600" y="580" as="targetPoint" />
          </mxGeometry>
        </mxCell>
        <mxCell id="OGXLZMMOmWirMbefxMoP-10" value="" style="endArrow=none;html=1;rounded=0;entryX=0;entryY=0.5;entryDx=0;entryDy=0;exitX=1;exitY=0.25;exitDx=0;exitDy=0;" parent="Ghag9Uj2o_KYf3zzMm-M-39" source="OGXLZMMOmWirMbefxMoP-5" target="OGXLZMMOmWirMbefxMoP-8" edge="1">
          <mxGeometry width="50" height="50" relative="1" as="geometry">
            <mxPoint x="550" y="630" as="sourcePoint" />
            <mxPoint x="600" y="580" as="targetPoint" />
          </mxGeometry>
        </mxCell>
        <mxCell id="OGXLZMMOmWirMbefxMoP-12" value="" style="endArrow=classic;startArrow=classic;html=1;rounded=0;exitX=0.5;exitY=0;exitDx=0;exitDy=0;exitPerimeter=0;entryX=1.032;entryY=1.012;entryDx=0;entryDy=0;entryPerimeter=0;" parent="Ghag9Uj2o_KYf3zzMm-M-39" source="0WTZu4ovhttGv2kPZOOL-4" target="gXcSTlvEl8zo6IsZ8F5V-6" edge="1">
          <mxGeometry width="50" height="50" relative="1" as="geometry">
            <mxPoint x="245" y="760" as="sourcePoint" />
            <mxPoint x="450" y="759.9999999999998" as="targetPoint" />
          </mxGeometry>
        </mxCell>
        <mxCell id="OGXLZMMOmWirMbefxMoP-13" value="Security Group&#xa;Allow incoming from ECS&#xa;API and CMS Tasks" style="rounded=1;arcSize=10;dashed=1;strokeColor=#ff0000;fillColor=none;gradientColor=none;dashPattern=8 4;strokeWidth=2;verticalAlign=top;" parent="Ghag9Uj2o_KYf3zzMm-M-39" vertex="1">
          <mxGeometry x="140" y="750" width="640" height="100" as="geometry" />
        </mxCell>
        <mxCell id="0WTZu4ovhttGv2kPZOOL-9" value="" style="endArrow=classic;html=1;rounded=0;exitX=0.835;exitY=0;exitDx=0;exitDy=0;exitPerimeter=0;entryX=0.459;entryY=1.026;entryDx=0;entryDy=0;entryPerimeter=0;" edge="1" parent="Ghag9Uj2o_KYf3zzMm-M-39" source="0WTZu4ovhttGv2kPZOOL-21" target="gXcSTlvEl8zo6IsZ8F5V-32">
          <mxGeometry width="50" height="50" relative="1" as="geometry">
            <mxPoint x="604.59" y="885" as="sourcePoint" />
            <mxPoint x="742" y="860" as="targetPoint" />
          </mxGeometry>
        </mxCell>
        <mxCell id="0WTZu4ovhttGv2kPZOOL-10" value="" style="endArrow=classic;startArrow=none;html=1;rounded=0;exitX=0.488;exitY=0;exitDx=0;exitDy=0;exitPerimeter=0;entryX=0.331;entryY=1.012;entryDx=0;entryDy=0;entryPerimeter=0;startFill=0;" edge="1" parent="Ghag9Uj2o_KYf3zzMm-M-39" source="0WTZu4ovhttGv2kPZOOL-14" target="gXcSTlvEl8zo6IsZ8F5V-6">
          <mxGeometry width="50" height="50" relative="1" as="geometry">
            <mxPoint x="241.88" y="881.24" as="sourcePoint" />
            <mxPoint x="241" y="910" as="targetPoint" />
          </mxGeometry>
        </mxCell>
        <mxCell id="0WTZu4ovhttGv2kPZOOL-4" value="RDS Aurora for PostgreSQL&lt;div&gt;Serverless&lt;/div&gt;" style="sketch=0;points=[[0,0,0],[0.25,0,0],[0.5,0,0],[0.75,0,0],[1,0,0],[0,1,0],[0.25,1,0],[0.5,1,0],[0.75,1,0],[1,1,0],[0,0.25,0],[0,0.5,0],[0,0.75,0],[1,0.25,0],[1,0.5,0],[1,0.75,0]];outlineConnect=0;fontColor=#232F3E;fillColor=#C925D1;strokeColor=#ffffff;dashed=0;verticalLabelPosition=bottom;verticalAlign=top;align=center;html=1;fontSize=12;fontStyle=0;aspect=fixed;shape=mxgraph.aws4.resourceIcon;resIcon=mxgraph.aws4.aurora;" vertex="1" parent="Ghag9Uj2o_KYf3zzMm-M-39">
          <mxGeometry x="243.22" y="770" width="40" height="40" as="geometry" />
        </mxCell>
        <mxCell id="0WTZu4ovhttGv2kPZOOL-15" value="CloudWatch&lt;div&gt;VPC Endpoint&lt;/div&gt;" style="sketch=0;outlineConnect=0;fontColor=#232F3E;gradientColor=none;fillColor=#8C4FFF;strokeColor=none;dashed=0;verticalLabelPosition=bottom;verticalAlign=top;align=center;html=1;fontSize=12;fontStyle=0;aspect=fixed;pointerEvents=1;shape=mxgraph.aws4.endpoints;" vertex="1" parent="Ghag9Uj2o_KYf3zzMm-M-39">
          <mxGeometry x="314" y="880" width="40" height="40" as="geometry" />
        </mxCell>
        <mxCell id="0WTZu4ovhttGv2kPZOOL-14" value="ECR&lt;div&gt;VPC Endpoint&lt;/div&gt;" style="sketch=0;outlineConnect=0;fontColor=#232F3E;gradientColor=none;fillColor=#8C4FFF;strokeColor=none;dashed=0;verticalLabelPosition=bottom;verticalAlign=top;align=center;html=1;fontSize=12;fontStyle=0;aspect=fixed;pointerEvents=1;shape=mxgraph.aws4.endpoints;" vertex="1" parent="Ghag9Uj2o_KYf3zzMm-M-39">
          <mxGeometry x="229" y="880" width="40" height="40" as="geometry" />
        </mxCell>
        <mxCell id="0WTZu4ovhttGv2kPZOOL-16" value="DKR&lt;div&gt;VPC Endpoint&lt;/div&gt;" style="sketch=0;outlineConnect=0;fontColor=#232F3E;gradientColor=none;fillColor=#8C4FFF;strokeColor=none;dashed=0;verticalLabelPosition=bottom;verticalAlign=top;align=center;html=1;fontSize=12;fontStyle=0;aspect=fixed;pointerEvents=1;shape=mxgraph.aws4.endpoints;" vertex="1" parent="Ghag9Uj2o_KYf3zzMm-M-39">
          <mxGeometry x="152" y="880" width="40" height="40" as="geometry" />
        </mxCell>
        <mxCell id="0WTZu4ovhttGv2kPZOOL-20" value="CloudWatch&lt;div&gt;VPC Endpoint&lt;/div&gt;" style="sketch=0;outlineConnect=0;fontColor=#232F3E;gradientColor=none;fillColor=#8C4FFF;strokeColor=none;dashed=0;verticalLabelPosition=bottom;verticalAlign=top;align=center;html=1;fontSize=12;fontStyle=0;aspect=fixed;pointerEvents=1;shape=mxgraph.aws4.endpoints;" vertex="1" parent="Ghag9Uj2o_KYf3zzMm-M-39">
          <mxGeometry x="730" y="880" width="40" height="40" as="geometry" />
        </mxCell>
        <mxCell id="0WTZu4ovhttGv2kPZOOL-21" value="DKR&lt;div&gt;VPC Endpoint&lt;/div&gt;" style="sketch=0;outlineConnect=0;fontColor=#232F3E;gradientColor=none;fillColor=#8C4FFF;strokeColor=none;dashed=0;verticalLabelPosition=bottom;verticalAlign=top;align=center;html=1;fontSize=12;fontStyle=0;aspect=fixed;pointerEvents=1;shape=mxgraph.aws4.endpoints;" vertex="1" parent="Ghag9Uj2o_KYf3zzMm-M-39">
          <mxGeometry x="566.59" y="880" width="40" height="40" as="geometry" />
        </mxCell>
        <mxCell id="0WTZu4ovhttGv2kPZOOL-22" value="ECS&lt;div&gt;VPC Endpoint&lt;/div&gt;" style="sketch=0;outlineConnect=0;fontColor=#232F3E;gradientColor=none;fillColor=#8C4FFF;strokeColor=none;dashed=0;verticalLabelPosition=bottom;verticalAlign=top;align=center;html=1;fontSize=12;fontStyle=0;aspect=fixed;pointerEvents=1;shape=mxgraph.aws4.endpoints;" vertex="1" parent="Ghag9Uj2o_KYf3zzMm-M-39">
          <mxGeometry x="649" y="880" width="40" height="40" as="geometry" />
        </mxCell>
        <mxCell id="0WTZu4ovhttGv2kPZOOL-18" value="S3 VPC&lt;div&gt;Gateway Endpoint&lt;/div&gt;" style="sketch=0;outlineConnect=0;fontColor=#232F3E;gradientColor=none;fillColor=#8C4FFF;strokeColor=none;dashed=0;verticalLabelPosition=bottom;verticalAlign=top;align=center;html=1;fontSize=12;fontStyle=0;aspect=fixed;pointerEvents=1;shape=mxgraph.aws4.endpoints;" vertex="1" parent="Ghag9Uj2o_KYf3zzMm-M-39">
          <mxGeometry x="284.91" y="1020" width="40" height="40" as="geometry" />
        </mxCell>
        <mxCell id="Ghag9Uj2o_KYf3zzMm-M-69" value="CloudWatch&lt;div&gt;Logs and Metrics&lt;/div&gt;" style="sketch=0;points=[[0,0,0],[0.25,0,0],[0.5,0,0],[0.75,0,0],[1,0,0],[0,1,0],[0.25,1,0],[0.5,1,0],[0.75,1,0],[1,1,0],[0,0.25,0],[0,0.5,0],[0,0.75,0],[1,0.25,0],[1,0.5,0],[1,0.75,0]];points=[[0,0,0],[0.25,0,0],[0.5,0,0],[0.75,0,0],[1,0,0],[0,1,0],[0.25,1,0],[0.5,1,0],[0.75,1,0],[1,1,0],[0,0.25,0],[0,0.5,0],[0,0.75,0],[1,0.25,0],[1,0.5,0],[1,0.75,0]];outlineConnect=0;fontColor=#232F3E;fillColor=#E7157B;strokeColor=#ffffff;dashed=0;verticalLabelPosition=bottom;verticalAlign=top;align=center;html=1;fontSize=12;fontStyle=0;aspect=fixed;shape=mxgraph.aws4.resourceIcon;resIcon=mxgraph.aws4.cloudwatch_2;" parent="Ghag9Uj2o_KYf3zzMm-M-39" vertex="1">
          <mxGeometry x="642.9699999999999" y="1140" width="40" height="40" as="geometry" />
        </mxCell>
        <mxCell id="gXcSTlvEl8zo6IsZ8F5V-47" value="" style="rounded=1;whiteSpace=wrap;html=1;fillColor=none;dashed=1;arcSize=4;" parent="Ghag9Uj2o_KYf3zzMm-M-39" vertex="1">
          <mxGeometry x="375.97" y="1130" width="211" height="180" as="geometry" />
        </mxCell>
        <mxCell id="gXcSTlvEl8zo6IsZ8F5V-48" value="ECR" style="outlineConnect=0;dashed=0;verticalLabelPosition=bottom;verticalAlign=top;align=center;html=1;shape=mxgraph.aws3.ecr;fillColor=#F58534;gradientColor=none;fontStyle=0" parent="Ghag9Uj2o_KYf3zzMm-M-39" vertex="1">
          <mxGeometry x="409.97" y="1140" width="40" height="40" as="geometry" />
        </mxCell>
        <mxCell id="gXcSTlvEl8zo6IsZ8F5V-49" value="API&lt;div&gt;Docker Images&lt;/div&gt;" style="outlineConnect=0;dashed=0;verticalLabelPosition=bottom;verticalAlign=top;align=center;html=1;shape=mxgraph.aws3.ecr_registry;fillColor=#F58534;gradientColor=none;fontStyle=0" parent="Ghag9Uj2o_KYf3zzMm-M-39" vertex="1">
          <mxGeometry x="409.97" y="1220" width="40" height="40" as="geometry" />
        </mxCell>
        <mxCell id="gXcSTlvEl8zo6IsZ8F5V-50" value="CMS&lt;div&gt;Docker Images&lt;/div&gt;" style="outlineConnect=0;dashed=0;verticalLabelPosition=bottom;verticalAlign=top;align=center;html=1;shape=mxgraph.aws3.ecr_registry;fillColor=#F58534;gradientColor=none;fontStyle=0" parent="Ghag9Uj2o_KYf3zzMm-M-39" vertex="1">
          <mxGeometry x="509.97" y="1220" width="40" height="40" as="geometry" />
        </mxCell>
        <mxCell id="gXcSTlvEl8zo6IsZ8F5V-76" value="" style="rounded=1;whiteSpace=wrap;html=1;fillColor=none;dashed=1;arcSize=7;" parent="Ghag9Uj2o_KYf3zzMm-M-39" vertex="1">
          <mxGeometry x="215.97" y="1130" width="140" height="130" as="geometry" />
        </mxCell>
        <mxCell id="Ghag9Uj2o_KYf3zzMm-M-55" value="S3" style="sketch=0;points=[[0,0,0],[0.25,0,0],[0.5,0,0],[0.75,0,0],[1,0,0],[0,1,0],[0.25,1,0],[0.5,1,0],[0.75,1,0],[1,1,0],[0,0.25,0],[0,0.5,0],[0,0.75,0],[1,0.25,0],[1,0.5,0],[1,0.75,0]];outlineConnect=0;fontColor=#232F3E;fillColor=#7AA116;strokeColor=#ffffff;dashed=0;verticalLabelPosition=bottom;verticalAlign=top;align=center;html=1;fontSize=12;fontStyle=0;aspect=fixed;shape=mxgraph.aws4.resourceIcon;resIcon=mxgraph.aws4.s3;" parent="Ghag9Uj2o_KYf3zzMm-M-39" vertex="1">
          <mxGeometry x="228.85000000000002" y="1140" width="40" height="40" as="geometry" />
        </mxCell>
        <mxCell id="Ghag9Uj2o_KYf3zzMm-M-56" value="Config Files" style="sketch=0;outlineConnect=0;fontColor=#232F3E;gradientColor=none;fillColor=#7AA116;strokeColor=none;dashed=0;verticalLabelPosition=bottom;verticalAlign=top;align=center;html=1;fontSize=12;fontStyle=0;aspect=fixed;pointerEvents=1;shape=mxgraph.aws4.bucket_with_objects;" parent="Ghag9Uj2o_KYf3zzMm-M-39" vertex="1">
          <mxGeometry x="284.9100000000001" y="1190" width="38.46" height="40" as="geometry" />
        </mxCell>
        <mxCell id="gXcSTlvEl8zo6IsZ8F5V-77" value="" style="endArrow=classic;html=1;rounded=0;exitX=0.522;exitY=-0.017;exitDx=0;exitDy=0;exitPerimeter=0;entryX=0.486;entryY=1.025;entryDx=0;entryDy=0;entryPerimeter=0;" parent="Ghag9Uj2o_KYf3zzMm-M-39" source="Ghag9Uj2o_KYf3zzMm-M-56" target="0WTZu4ovhttGv2kPZOOL-18" edge="1">
          <mxGeometry width="50" height="50" relative="1" as="geometry">
            <mxPoint x="455.97" y="1230" as="sourcePoint" />
            <mxPoint x="303.62000000000006" y="1172.6800000000003" as="targetPoint" />
          </mxGeometry>
        </mxCell>
        <mxCell id="gXcSTlvEl8zo6IsZ8F5V-54" value="" style="endArrow=none;startArrow=classic;html=1;rounded=0;exitX=0.675;exitY=1.005;exitDx=0;exitDy=0;exitPerimeter=0;entryX=0.5;entryY=0;entryDx=0;entryDy=0;entryPerimeter=0;startFill=1;" parent="Ghag9Uj2o_KYf3zzMm-M-39" source="0WTZu4ovhttGv2kPZOOL-16" target="gXcSTlvEl8zo6IsZ8F5V-48" edge="1">
          <mxGeometry width="50" height="50" relative="1" as="geometry">
            <mxPoint x="172.99999999999991" y="865.1199999999999" as="sourcePoint" />
            <mxPoint x="520.92" y="794" as="targetPoint" />
          </mxGeometry>
        </mxCell>
        <mxCell id="0WTZu4ovhttGv2kPZOOL-7" value="" style="endArrow=none;startArrow=classic;html=1;rounded=0;exitX=0.737;exitY=0.952;exitDx=0;exitDy=0;exitPerimeter=0;entryX=0.5;entryY=0;entryDx=0;entryDy=0;entryPerimeter=0;startFill=1;" edge="1" parent="Ghag9Uj2o_KYf3zzMm-M-39" source="0WTZu4ovhttGv2kPZOOL-14" target="gXcSTlvEl8zo6IsZ8F5V-48">
          <mxGeometry width="50" height="50" relative="1" as="geometry">
            <mxPoint x="250.56000000000006" y="864.6399999999999" as="sourcePoint" />
            <mxPoint x="557.92" y="1070" as="targetPoint" />
          </mxGeometry>
        </mxCell>
        <mxCell id="gXcSTlvEl8zo6IsZ8F5V-70" value="" style="endArrow=classic;html=1;rounded=0;exitX=0.5;exitY=0;exitDx=0;exitDy=0;exitPerimeter=0;entryX=0.183;entryY=0.978;entryDx=0;entryDy=0;entryPerimeter=0;" parent="Ghag9Uj2o_KYf3zzMm-M-39" source="gXcSTlvEl8zo6IsZ8F5V-48" target="0WTZu4ovhttGv2kPZOOL-22" edge="1">
          <mxGeometry width="50" height="50" relative="1" as="geometry">
            <mxPoint x="430.92" y="804" as="sourcePoint" />
            <mxPoint x="651.4" y="855.1599999999999" as="targetPoint" />
          </mxGeometry>
        </mxCell>
        <mxCell id="0WTZu4ovhttGv2kPZOOL-8" value="" style="endArrow=classic;html=1;rounded=0;exitX=0.5;exitY=0;exitDx=0;exitDy=0;exitPerimeter=0;entryX=0.004;entryY=0.938;entryDx=0;entryDy=0;entryPerimeter=0;" edge="1" parent="Ghag9Uj2o_KYf3zzMm-M-39" source="gXcSTlvEl8zo6IsZ8F5V-48" target="0WTZu4ovhttGv2kPZOOL-21">
          <mxGeometry width="50" height="50" relative="1" as="geometry">
            <mxPoint x="560.92" y="1061" as="sourcePoint" />
            <mxPoint x="574.4300000000002" y="862" as="targetPoint" />
          </mxGeometry>
        </mxCell>
        <mxCell id="gXcSTlvEl8zo6IsZ8F5V-56" value="" style="endArrow=classic;html=1;rounded=0;exitX=0.838;exitY=1.005;exitDx=0;exitDy=0;exitPerimeter=0;entryX=0.25;entryY=0;entryDx=0;entryDy=0;entryPerimeter=0;" parent="Ghag9Uj2o_KYf3zzMm-M-39" source="0WTZu4ovhttGv2kPZOOL-15" target="Ghag9Uj2o_KYf3zzMm-M-69" edge="1">
          <mxGeometry width="50" height="50" relative="1" as="geometry">
            <mxPoint x="334.2799999999999" y="864" as="sourcePoint" />
            <mxPoint x="520.92" y="794" as="targetPoint" />
          </mxGeometry>
        </mxCell>
        <mxCell id="gXcSTlvEl8zo6IsZ8F5V-72" value="" style="endArrow=classic;html=1;rounded=0;exitX=0.438;exitY=1.098;exitDx=0;exitDy=0;exitPerimeter=0;entryX=0.75;entryY=0;entryDx=0;entryDy=0;entryPerimeter=0;" parent="Ghag9Uj2o_KYf3zzMm-M-39" source="0WTZu4ovhttGv2kPZOOL-20" target="Ghag9Uj2o_KYf3zzMm-M-69" edge="1">
          <mxGeometry width="50" height="50" relative="1" as="geometry">
            <mxPoint x="746.68" y="865.52" as="sourcePoint" />
            <mxPoint x="480.9200000000001" y="754" as="targetPoint" />
          </mxGeometry>
        </mxCell>
        <mxCell id="gXcSTlvEl8zo6IsZ8F5V-69" value="" style="endArrow=classic;html=1;rounded=0;exitX=0.902;exitY=0.22;exitDx=0;exitDy=0;exitPerimeter=0;entryX=0.029;entryY=1.003;entryDx=0;entryDy=0;entryPerimeter=0;" parent="Ghag9Uj2o_KYf3zzMm-M-39" source="0WTZu4ovhttGv2kPZOOL-18" target="gXcSTlvEl8zo6IsZ8F5V-32" edge="1">
          <mxGeometry width="50" height="50" relative="1" as="geometry">
            <mxPoint x="317.02000000000004" y="1009.0799999999999" as="sourcePoint" />
            <mxPoint x="727.3663636363636" y="639.0800000000002" as="targetPoint" />
          </mxGeometry>
        </mxCell>
        <mxCell id="gXcSTlvEl8zo6IsZ8F5V-52" value="" style="endArrow=classic;startArrow=none;html=1;rounded=0;exitX=0.438;exitY=0.016;exitDx=0;exitDy=0;exitPerimeter=0;entryX=0.643;entryY=1.01;entryDx=0;entryDy=0;entryPerimeter=0;startFill=0;endFill=1;" parent="Ghag9Uj2o_KYf3zzMm-M-39" source="0WTZu4ovhttGv2kPZOOL-18" target="gXcSTlvEl8zo6IsZ8F5V-6" edge="1">
          <mxGeometry width="50" height="50" relative="1" as="geometry">
            <mxPoint x="303.26000000000005" y="1006.1200000000003" as="sourcePoint" />
            <mxPoint x="220.7481818181817" y="540" as="targetPoint" />
          </mxGeometry>
        </mxCell>
        <mxCell id="Ghag9Uj2o_KYf3zzMm-M-107" value="End User" style="points=[[0.35,0,0],[0.98,0.51,0],[1,0.71,0],[0.67,1,0],[0,0.795,0],[0,0.65,0]];verticalLabelPosition=bottom;sketch=0;html=1;verticalAlign=top;aspect=fixed;align=center;pointerEvents=1;shape=mxgraph.cisco19.user;fillColor=#005073;strokeColor=none;" parent="1" vertex="1">
          <mxGeometry x="107" y="186" width="50" height="50" as="geometry" />
        </mxCell>
        <mxCell id="Ghag9Uj2o_KYf3zzMm-M-110" value="Certificate Manager" style="sketch=0;points=[[0,0,0],[0.25,0,0],[0.5,0,0],[0.75,0,0],[1,0,0],[0,1,0],[0.25,1,0],[0.5,1,0],[0.75,1,0],[1,1,0],[0,0.25,0],[0,0.5,0],[0,0.75,0],[1,0.25,0],[1,0.5,0],[1,0.75,0]];outlineConnect=0;fontColor=#232F3E;fillColor=#DD344C;strokeColor=#ffffff;dashed=0;verticalLabelPosition=bottom;verticalAlign=top;align=center;html=1;fontSize=12;fontStyle=0;aspect=fixed;shape=mxgraph.aws4.resourceIcon;resIcon=mxgraph.aws4.certificate_manager_3;" parent="1" vertex="1">
          <mxGeometry x="270" y="400" width="40" height="40" as="geometry" />
        </mxCell>
        <mxCell id="Ghag9Uj2o_KYf3zzMm-M-111" value="api.okyapp.info&lt;div&gt;cms.okyapp.info&lt;/div&gt;" style="sketch=0;aspect=fixed;pointerEvents=1;shadow=0;dashed=0;html=1;strokeColor=none;labelPosition=center;verticalLabelPosition=bottom;verticalAlign=top;align=center;fillColor=#00188D;shape=mxgraph.azure.certificate" parent="1" vertex="1">
          <mxGeometry x="340" y="470" width="50" height="40" as="geometry" />
        </mxCell>
        <mxCell id="Ghag9Uj2o_KYf3zzMm-M-112" value="CloudFront" style="sketch=0;points=[[0,0,0],[0.25,0,0],[0.5,0,0],[0.75,0,0],[1,0,0],[0,1,0],[0.25,1,0],[0.5,1,0],[0.75,1,0],[1,1,0],[0,0.25,0],[0,0.5,0],[0,0.75,0],[1,0.25,0],[1,0.5,0],[1,0.75,0]];outlineConnect=0;fontColor=#232F3E;fillColor=#8C4FFF;strokeColor=#ffffff;dashed=0;verticalLabelPosition=bottom;verticalAlign=top;align=center;html=1;fontSize=12;fontStyle=0;aspect=fixed;shape=mxgraph.aws4.resourceIcon;resIcon=mxgraph.aws4.cloudfront;" parent="1" vertex="1">
          <mxGeometry x="120" y="400" width="40" height="40" as="geometry" />
        </mxCell>
        <mxCell id="Ghag9Uj2o_KYf3zzMm-M-113" value="" style="endArrow=classic;html=1;rounded=0;exitX=0;exitY=0.5;exitDx=0;exitDy=0;exitPerimeter=0;entryX=1;entryY=0.5;entryDx=0;entryDy=0;entryPerimeter=0;" parent="1" source="Ghag9Uj2o_KYf3zzMm-M-110" target="Ghag9Uj2o_KYf3zzMm-M-112" edge="1">
          <mxGeometry width="50" height="50" relative="1" as="geometry">
            <mxPoint x="670" y="770" as="sourcePoint" />
            <mxPoint x="720" y="720" as="targetPoint" />
          </mxGeometry>
        </mxCell>
        <mxCell id="Ghag9Uj2o_KYf3zzMm-M-114" value="" style="endArrow=classic;startArrow=classic;html=1;rounded=0;exitX=0.67;exitY=1;exitDx=0;exitDy=0;exitPerimeter=0;entryX=0.5;entryY=0;entryDx=0;entryDy=0;entryPerimeter=0;" parent="1" source="Ghag9Uj2o_KYf3zzMm-M-107" target="Ghag9Uj2o_KYf3zzMm-M-112" edge="1">
          <mxGeometry width="50" height="50" relative="1" as="geometry">
            <mxPoint x="420" y="430" as="sourcePoint" />
            <mxPoint x="470" y="380" as="targetPoint" />
          </mxGeometry>
        </mxCell>
        <mxCell id="Ghag9Uj2o_KYf3zzMm-M-125" value="" style="endArrow=classic;startArrow=none;html=1;rounded=0;entryX=0.5;entryY=1;entryDx=0;entryDy=0;entryPerimeter=0;exitX=0.5;exitY=0;exitDx=0;exitDy=0;exitPerimeter=0;startFill=0;endFill=1;" parent="1" source="Ghag9Uj2o_KYf3zzMm-M-121" target="Ghag9Uj2o_KYf3zzMm-M-112" edge="1">
          <mxGeometry width="50" height="50" relative="1" as="geometry">
            <mxPoint x="360" y="870" as="sourcePoint" />
            <mxPoint x="410" y="820" as="targetPoint" />
          </mxGeometry>
        </mxCell>
      </root>
    </mxGraphModel>
  </diagram>
</mxfile>
